<svg xmlns="http://www.w3.org/2000/svg" width="256" height="256"><path fill-opacity=".016" d="M0 128.004v128.004l128.25-.254 128.25-.254.254-127.75L257.008 0H0v128.004m.485.496c0 70.4.119 99.053.265 63.672.146-35.38.146-92.98 0-128C.604 29.153.485 58.1.485 128.5" fill="#1976D2" fill-rule="evenodd"/><path fill-opacity=".127" d="M102 56c0 .55-2.106 1-4.679 1-2.573 0-6.061.415-7.75.923s-5.546 1.45-8.571 2.093c-18.509 3.937-41.56 13.855-54.5 23.45C17.292 90.293 4 106.197 4 110.386c0 .823-.45 1.774-1 2.114-.55.34-1 1.716-1 3.059C2 116.902 1.55 118 1 118c-1.327 0-1.327 19.68 0 20.5.55.34 1 1.428 1 2.419 0 3.581 6.608 14.494 12.873 21.261 16.901 18.255 46.671 32.147 78.863 36.802 8.835 1.278 60.779 1.265 69.647-.017 8.644-1.249 22.286-4.502 30.117-7.181 9.487-3.245 23.745-9.71 24.333-11.034.184-.412.785-.75 1.337-.75 2.377 0 16.481-10.908 22.665-17.531 6.396-6.848 11.334-15.138 14.022-23.54 1.436-4.486 1.554-22.301.143-21.429-.565.349-1-.47-1-1.882 0-1.375-.45-2.778-1-3.118-.55-.34-1-1.291-1-2.114 0-2.357-7.819-13.389-13.411-18.92-4.761-4.71-10.858-9.659-14.741-11.966-11.498-6.832-23.233-12.199-33.185-15.174-2.84-.849-6.063-1.898-7.163-2.33-1.1-.433-4.7-1.311-8-1.951-3.3-.641-7.382-1.588-9.071-2.105-1.689-.517-5.177-.94-7.75-.94-2.573 0-4.679-.45-4.679-1 0-.642-9.5-1-26.5-1s-26.5.358-26.5 1m12 6.005c-17.549 1.38-35.059 5.775-48.861 12.266-21.524 10.122-36.387 25.269-41.996 42.8-2.217 6.928-.956 23.972 2.026 27.379.457.523.831 1.56.831 2.305 0 2.494 7.744 12.793 13.758 18.298 6.649 6.086 14.396 10.341 23.242 12.768 16.614 4.556 32.479 3.872 62.5-2.696 39.581-8.659 50.891-9.115 57.212-2.307 2.115 2.278 2.421 3.397 2.036 7.432-.464 4.854-.031 5.41 3.016 3.875.955-.481 3.536-1.762 5.736-2.846 7.271-3.583 11.935-6.428 17.4-10.616 5.757-4.411 14.32-13.621 16.453-17.695.711-1.357 1.77-3.368 2.353-4.468 10.398-19.606 4.705-41.925-15.206-59.618-22.325-19.839-60.426-30.029-100.5-26.877m75.3 26.273c-6.104 3.229-15.845 12.764-14.136 13.837.735.462 2.011.649 2.836.415.825-.233 3.3-.743 5.5-1.134 12.514-2.222 19.464-9.569 13.035-13.781-2.967-1.944-2.168-2.018-7.235.663M55.5 89.606c-7.682 1.926-15.011 7.962-17.159 14.131-1.735 4.98-1.695 5.532.771 10.778 1.562 3.324 4.231 6.104 10.25 10.679 7.973 6.06 10.542 8.507 10.606 10.101.018.438-1.127 1.955-2.544 3.372-2.183 2.183-3.198 2.492-6.653 2.029-2.347-.315-6.231-2.049-9.157-4.088-2.794-1.948-5.375-3.219-5.733-2.825-.359.395-.959 3.286-1.334 6.426l-.681 5.708 3.817 1.655c2.677 1.161 6.804 1.669 13.817 1.702 8.756.041 10.696-.279 15.597-2.573 16.744-7.838 18.611-25.189 3.522-32.738-1.584-.792-4.846-3.171-7.25-5.287-6.977-6.142-5.471-11.577 3.227-11.644 3.957-.031 9.752 2.104 10.943 4.031.319.515 1.452.937 2.52.937 1.681 0 1.941-.721 1.941-5.392 0-4.76-.263-5.456-2.25-5.946-3.346-.825-21.941-1.635-24.25-1.056m96.866.109c-4.458.561-10.719 6.302-12.791 11.728-.957 2.506-2.308 4.557-3.003 4.557-4.14 0-6.344 8.724-2.46 9.739 2.283.598 2.279 2.736-.032 16.261-.876 5.123-1.541 8.056-3.855 17.015-1.121 4.34-3.959 10.582-6.474 14.239-1.698 2.471-1.728 2.818-.287 3.37 2.201.845 10.254-1.489 14.706-4.262 5.901-3.675 10.144-10.36 12.608-19.862 1.575-6.071 3.22-15.765 3.236-19.06.022-4.837 1.088-7.44 3.046-7.44 2.393 0 4.94-3.724 4.94-7.223 0-2.301-.432-2.777-2.519-2.777-2.236 0-2.447-.309-1.88-2.75.77-3.315 3.275-5.508 5.603-4.904 2.03.527 3.941-.866 6.282-4.581 1.702-2.7 1.691-2.747-.946-3.75-2.582-.982-9.712-1.114-16.174-.3m53.134 17.389c-10.911.956-17.5 4.586-17.5 9.642 0 3.485 2.307 5.254 6.851 5.254 3.421 0 4.483-.573 7.417-4 3.985-4.655 5.732-5.065 5.732-1.345 0 2.884-6.891 10.345-9.556 10.345-.809 0-2.253.401-3.208.891-.955.489-3.904 1.926-6.554 3.192-2.649 1.265-5.253 3.115-5.785 4.109-2.717 5.077-2.66-.382.158-15.192.576-3.025 1.298-7.205 1.605-9.289l.558-3.789-9.359.289-9.359.289-.798 7c-1.228 10.775-4.39 26.797-5.957 30.183-2.084 4.5-.589 5.317 9.724 5.317H179l.015-4.25c.009-2.338.452-4.925.985-5.75.758-1.173.973-.913.985 1.194.008 1.482 1.103 3.957 2.433 5.5 2.211 2.566 2.978 2.798 8.956 2.714 3.921-.054 7.196-.636 8.179-1.452 1.403-1.164 1.779-1.115 2.593.341.785 1.403 2.506 1.703 9.764 1.703h8.81l.664-5.25c.366-2.887 1.144-7.725 1.731-10.75 1.788-9.216 2.185-20.07.829-22.605-2.085-3.896-8.296-5.267-19.444-4.291m-105.302 2.384c-7.747 3.606-14.361 10.721-16.608 17.864-2.675 8.505-1.793 13.204 3.338 17.785 7.353 6.564 19.4 6.431 29.348-.325 5.698-3.869 12.651-11.94 12.699-14.741.014-.786.565-2.923 1.226-4.75 2.172-6.008-2.112-13.992-9.073-16.908-5.421-2.271-14.774-1.791-20.93 1.075m6.534 7.856c-2.319 2.502-4.086 8.184-5.204 16.732-.714 5.463.051 7.924 2.464 7.924 3.693 0 7.312-9.591 7.431-19.689.088-7.547-1.117-8.823-4.691-4.967M.37 128c0 5.775.165 8.137.367 5.25.202-2.887.202-7.612 0-10.5S.37 122.225.37 128m201.265 5.073c-3.353 2.637-3.76 7.927-.61 7.927 1.98 0 3.178-1.976 4.575-7.544.754-3.001-.485-3.121-3.965-.383m43.865 39.088c-5.503 3.026-6.856 8.126-3.432 12.935 1.702 2.39 2.788 2.904 6.133 2.904 4.94 0 7.799-2.776 7.799-7.571 0-4.64-.848-6.299-4.072-7.966-3.336-1.725-3.801-1.747-6.428-.302m-2.5 7.78c0 2.415.556 2.658 1.349.591.31-.807.133-1.734-.393-2.059-.526-.325-.956.336-.956 1.468m9.5.059c-.34.55-.141 1 .441 1s1.059-.45 1.059-1-.198-1-.441-1-.719.45-1.059 1m-5.5 3.5c0 .825.73 1.5 1.622 1.5 1.329 0 1.398-.271.378-1.5-.685-.825-1.415-1.5-1.622-1.5-.208 0-.378.675-.378 1.5" fill="#1976D2" fill-rule="evenodd"/><path fill-opacity=".434" d="M108 55.965c-.825.465-5.775 1.374-11 2.018-8.907 1.099-11.362 1.581-21.5 4.215-5.775 1.5-18.422 5.706-22.5 7.482-7.394 3.22-8.716 3.897-16 8.191C18.095 89.018 4.453 104.527 2.361 117.25 2.022 119.313 1.352 121 .872 121c-1.126 0-1.144 13.297-.019 14.55.468.523 1.443 3.143 2.164 5.824C5.535 150.727 16.083 164.16 27.849 173c10.616 7.975 33.118 17.767 50.151 21.822 18.923 4.506 20.783 4.678 50.5 4.678 30.104 0 36-.611 55-5.697 13.168-3.525 31.117-11.298 41.653-18.038 13.742-8.791 24.882-22.407 29.344-35.87 2.511-7.576 3.524-20.644 1.503-19.395-.553.342-1.018-.414-1.04-1.691-.063-3.634-4.257-12.462-9.062-19.078C234.785 84.43 210.682 69.943 185 63.128c-13.756-3.651-15.05-3.917-25-5.145-5.225-.645-10.281-1.58-11.236-2.078-2.186-1.139-38.736-1.086-40.764.06m7 4.617c-5.895.491-17.462 2.333-22.5 3.584-9.808 2.434-12.472 3.252-20 6.146-13.542 5.204-21.098 9.668-31.276 18.473-19.523 16.89-25.268 39.767-15.066 59.989 12.025 23.834 37.156 35.603 69.001 32.314 9.663-.998 23.424-3.459 40.341-7.212 29.487-6.543 46.184-5.969 48.097 1.655.344 1.372.322 4.521-.049 6.997l-.675 4.503 5.537-2.449c23.312-10.309 38.199-24.232 44.688-41.792 2.832-7.664 2.737-21.467-.202-29.381-9.374-25.241-37.057-43.682-76.396-50.894-8.019-1.47-33.059-2.636-41.5-1.933m72.857 29.673c-4.97 3.063-13.274 10.661-12.499 11.437.742.741 10.617-1.456 15.642-3.481 4.753-1.915 7-4.085 7-6.759 0-4.005-4.689-4.558-10.143-1.197M49.979 92.75c-7.553 3.862-11.187 8.721-11.283 15.087-.094 6.24 2.425 10.181 10.025 15.683 11.152 8.073 13.584 12.093 9.529 15.747-4.172 3.76-13.374 2.568-17.783-2.303-2.542-2.81-4.124-2.431-4.842 1.161-1.388 6.939-1.042 7.612 4.779 9.304 18.746 5.45 39.58-4.143 39.592-18.229.006-6.361-2.281-9.755-9.835-14.597C62.78 109.872 58 104.903 58 101.962c0-1.036.985-2.802 2.189-3.923 3.143-2.929 9.551-2.703 15.362.541 2.542 1.42 4.766 2.432 4.942 2.25.176-.181.473-2.127.66-4.324l.339-3.994-4.996-1.16c-2.748-.638-8.628-1.203-13.067-1.256-6.945-.083-8.82.287-13.45 2.654m100.338-1.522c-4.156 1.336-8.148 5.583-9.785 10.409-.721 2.125-2.345 4.397-3.61 5.049-1.265.653-2.906 2.345-3.648 3.761-1.262 2.408-1.178 2.639 1.302 3.582 2.556.972 2.627 1.21 2.014 6.739-1.849 16.665-6.817 35.24-11.093 41.482l-2.569 3.75 2.286-.015c3.617-.024 9.485-2.388 14.232-5.734 7.12-5.019 10.734-14.322 13.692-35.251 1.291-9.14 2.116-11 4.877-11 1.871 0 2.985-1.897 2.985-5.082 0-1.379-.702-1.918-2.5-1.918-1.591 0-2.5-.563-2.5-1.55 0-2.712 2.988-7.446 4.776-7.565.948-.064 2.174-.22 2.724-.348.55-.128 1.465-.301 2.034-.385 1.393-.205 4.58-5.705 3.773-6.512-1-1-15.443-.553-18.99.588M102.5 109.217c-4.176 1.474-11.907 7.242-14.119 10.534-3.89 5.79-4.6 7.954-4.739 14.432-.129 6.054.122 6.959 2.657 9.606 3.723 3.887 9.183 5.565 16.352 5.025 7.34-.553 12.165-2.848 18.313-8.71 5.737-5.471 8.196-10.718 8.355-17.824.13-5.845-1.889-9.479-6.899-12.42-3.37-1.978-15.069-2.355-19.92-.643m64.482 1.994c-.027 4.679-4.148 26.934-6.589 35.578-.645 2.283-.62 2.289 8.73 2l9.377-.289.228-4.5c.262-5.159 1.769-15.218 3.869-25.819.797-4.025 1.551-7.85 1.676-8.5.157-.818-2.46-1.27-8.523-1.47l-8.75-.289-.018 3.289m29.584-1.629c-5.014 1.836-7.566 4.155-7.566 6.873 0 3.12 1.904 4.545 6.075 4.545 3.076 0 4.251-.676 7.201-4.145 2.484-2.92 4.022-3.955 5.205-3.501 1.31.503 1.528 1.358.995 3.895-.729 3.472-6 9.751-8.186 9.751-.724 0-2.324.52-3.554 1.156-4.601 2.379-5.741 2.844-6.972 2.845-2.823.003-6.939 4.885-7.473 8.864-.449 3.348-.123 4.394 2.042 6.559 3.045 3.045 9.238 3.489 15.013 1.076 4.451-1.86 4.654-1.858 4.654.039 0 1.29 1.415 1.492 8.75 1.25l8.75-.289.278-4.5c.153-2.475.915-7.875 1.693-12 3.076-16.314 3.057-17.626-.302-20.985-2.957-2.957-3.205-3.014-12.842-2.945-5.895.043-11.401.647-13.761 1.512m-90.848 7.668c-4.017 5.478-6.863 19.743-4.732 23.723 2.772 5.181 8.376-.932 10.817-11.799 2.944-13.102-.406-19.667-6.085-11.924M.336 128c0 4.125.177 5.813.392 3.75.216-2.062.216-5.437 0-7.5-.215-2.062-.392-.375-.392 3.75m201.359 4.09c-3.146 2.602-3.751 3.687-3.5 6.278.224 2.298.865 3.212 2.407 3.432 3.034.433 5.583-3.917 5.203-8.876l-.305-3.979-3.805 3.145M247 173c0 .55.675 1 1.5 1s1.5-.45 1.5-1-.675-1-1.5-1-1.5.45-1.5 1m-4.759 2.986c-1.898 3.039-1.486 6.436 1.073 8.84 4.738 4.45 12.866 1.483 12.536-4.576l-.15-2.75-.422 2.809c-.617 4.107-3.725 3.222-3.943-1.123-.132-2.629.101-3.069 1.161-2.189.793.658 1.558.724 1.904.165.318-.515-.057-1.462-.833-2.106-1.082-.899-1.888-.873-3.464.112-1.62 1.011-2.311 1.024-3.278.057-1.752-1.752-3.161-1.518-4.584.761m.759 3.455c0 1.957.45 3.559 1 3.559s1-1.323 1-2.941c0-1.618-.45-3.219-1-3.559-.595-.368-1 .823-1 2.941m4.813-.758c.721.289 1.584.253 1.916-.079.332-.332-.258-.568-1.312-.525-1.165.048-1.402.285-.604.604m-1.577 4.31c-.935 1.498-.767 1.897.994 2.357 1.165.305 2.751.201 3.523-.232 1.105-.618.893-1.12-.994-2.356-2.211-1.449-2.485-1.431-3.523.231" fill="#1976D2" fill-rule="evenodd"/><path fill-opacity=".435" d="M116.833 55.995c-.183.547-5.283 1.444-11.333 1.993-22.258 2.02-41.199 7.092-60.114 16.099-17.899 8.522-33.52 22.598-39.3 35.413-2.531 5.611-2.949 6.997-3.611 12-.364 2.75-1.125 5.563-1.691 6.25-.708.86-.701 1.25.022 1.25.577 0 1.357 2.587 1.733 5.75C5.711 161.455 41.098 187.379 86 195.894c16.863 3.197 20.849 3.528 42.5 3.528s25.637-.331 42.5-3.528c13.955-2.646 28.359-7.513 41-13.851 11.171-5.601 14.428-7.68 21.558-13.758 11.755-10.021 19.535-22.51 20.881-33.519.386-3.154 1.168-6.023 1.738-6.375.704-.435.684-.859-.063-1.32-.604-.374-1.363-2.905-1.686-5.625-.566-4.769-1.004-6.236-3.647-12.196-5.627-12.689-21.624-26.913-40.079-35.636C202.2 69.595 181.88 62.61 175.5 61.513a346.62 346.62 0 0 1-8.5-1.602c-2.475-.502-9.45-1.365-15.5-1.917-6.05-.552-11.15-1.452-11.333-1.999-.195-.582-5.039-.995-11.667-.995s-11.472.413-11.667.995m-3.333 3.952c-1.65.449-5.07.87-7.601.935-2.53.065-5.905.512-7.5.993-1.594.482-5.374 1.423-8.399 2.092-12.212 2.701-31.353 10.74-40.408 16.97C23.233 99.072 13.611 124.998 24.703 148c6.357 13.182 21.282 27.058 31.797 29.561 1.65.393 3.45 1.049 4 1.458 2.111 1.57 9.596 2.263 25.5 2.361 16.817.103 21.826-.515 43.25-5.337a662.03 662.03 0 0 1 9.75-2.087c3.025-.623 7.525-1.573 10-2.111 2.475-.539 9.45-1.213 15.5-1.499 10.367-.491 11.202-.384 14.5 1.849 3.864 2.616 4.943 6.661 3.148 11.81-1.562 4.48.583 4.316 10.997-.84 22.291-11.035 36.497-25.772 41.878-43.443 1.954-6.416 1.406-19.501-1.097-26.191-2.015-5.384-5.537-12.304-6.887-13.531-.303-.275-1.809-2.189-3.348-4.253-4.716-6.327-18.008-16.241-28.925-21.576-15.292-7.473-29.538-11.73-45.766-13.676-8.33-.999-32.473-1.372-35.5-.548M186 92.391c-2.475 1.838-5.625 4.563-7 6.057l-2.5 2.715 3-.653c10.133-2.205 12.873-3.176 15.749-5.577 2.786-2.326 3.03-2.892 1.857-4.305-2.105-2.536-6.19-1.888-11.106 1.763M53.5 92c-.34.55-1.503 1-2.585 1s-3.981 2.013-6.441 4.474c-4.296 4.295-4.474 4.71-4.474 10.423 0 7.172 1.605 9.436 12.511 17.644C59.844 131.06 61 132.505 61 136.153c0 3.356-4.794 6.847-9.404 6.847-2.614 0-8.719-2.98-11.907-5.812-1.573-1.397-1.936-1.416-2.761-.148-.523.803-.833 2.967-.689 4.809.228 2.925.768 3.525 4.261 4.735 4.836 1.676 17.338 1.846 21.203.29 7.213-2.905 11.647-5.502 13.835-8.102 2.683-3.188 4.614-9.068 3.808-11.597-2.041-6.408-3.089-7.623-11.383-13.2-9.439-6.347-11.762-9.742-9.942-14.53 1.862-4.898 11.982-5.716 17.969-1.452 3.744 2.666 4.01 2.575 4.01-1.374 0-3.167-.282-3.453-4.443-4.5C70.041 90.73 54.337 90.645 53.5 92m95.992.486c-4.1 1.803-6.267 4.409-8.44 10.153-1.232 3.258-2.488 4.96-3.808 5.163-1.084.165-2.459 1.375-3.057 2.687-.955 2.095-.82 2.423 1.113 2.698 2.011.286 2.185.829 2.024 6.313-.182 6.192-1.934 18.104-3.31 22.5-.43 1.375-1.336 4.525-2.012 7-1.495 5.471-2.863 8.657-5.216 12.154-2.493 3.705-2.294 4.032 1.964 3.233 3.935-.737 9.436-3.45 12.651-6.238 2.569-2.228 7.018-12.404 8.372-19.149 1.754-8.735 3.227-18.501 3.227-21.387 0-1.936.746-2.986 2.75-3.872 2.717-1.202 5.156-3.535 5.218-4.991.018-.412-1.107-.75-2.499-.75-3.184 0-4.057-2.165-2.445-6.058 1.505-3.633 4.55-5.942 7.838-5.942 2.19 0 5.026-2.36 5.106-4.25.054-1.279-16.298-.662-19.476.736M105 109.372c-12.521 4.156-21 14.445-21 25.482 0 8.59 5.729 13.146 16.532 13.146 7.367 0 11.432-1.528 18.064-6.789 6.855-5.438 9.404-10.652 9.404-19.233 0-6.263-.229-7.013-2.75-8.996-6.136-4.828-12.933-6.039-20.25-3.61m62.982 1.836c-.011 1.811-.735 7.117-1.61 11.792-3.24 17.316-4.396 22.19-5.629 23.75-.775.981.976 1.25 8.135 1.25H178v-4.058c0-4.625 1.451-15.047 3.587-25.761.802-4.025 1.561-7.85 1.686-8.5.155-.806-2.23-1.274-7.523-1.473l-7.75-.292-.018 3.292m32.518-1.967c-5.825 1.438-8.287 2.785-10.072 5.509-1.458 2.225-1.446 2.572.149 4.335 2.848 3.147 6.027 2.363 10.858-2.678 3.418-3.567 4.866-4.446 6.483-3.933 2.721.864 2.656 3.98-.184 8.871-2.128 3.662-4.112 5.175-9.734 7.418-13.235 5.281-15 6.737-15 12.369 0 2.746.597 4.173 2.223 5.311 2.905 2.036 10.597 1.993 14.756-.082 3.045-1.519 3.353-1.519 4.203 0 .729 1.302 2.534 1.639 8.782 1.639h7.865l.503-6.25c.277-3.437 1.004-8.725 1.615-11.75 1.915-9.472 2.233-16.357.833-18.012-3.255-3.846-13.797-5.09-23.28-2.747m-94.864 6.395c-1.45 1.45-2.636 3.449-2.636 4.441 0 .993-.402 2.054-.894 2.358-.862.532-1.202 2.211-2.647 13.066-.574 4.312-.375 5.265 1.442 6.909 4.725 4.276 9.914-2.373 12.03-15.416 1.418-8.736 1.343-10.577-.502-12.423-2.211-2.21-3.76-1.967-6.793 1.065m96.762 15.078c-5.087 3.27-7.137 7.812-4.727 10.475 2.296 2.537 4.992 2.254 6.948-.73 1.891-2.887 3.576-10.6 2.548-11.666-.375-.389-2.521.475-4.769 1.921M248.5 181c.34.55.816 1 1.059 1s.441-.45.441-1-.477-1-1.059-1-.781.45-.441 1" fill="#1976D2" fill-rule="evenodd"/></svg>